<?xml version="1.0" encoding="UTF-8" standalone="no"?>
<!-- Created with Inkscape (http://www.inkscape.org/) -->

<svg
   xmlns:osb="http://www.openswatchbook.org/uri/2009/osb"
   xmlns:dc="http://purl.org/dc/elements/1.1/"
   xmlns:cc="http://creativecommons.org/ns#"
   xmlns:rdf="http://www.w3.org/1999/02/22-rdf-syntax-ns#"
   xmlns:svg="http://www.w3.org/2000/svg"
   xmlns="http://www.w3.org/2000/svg"
   xmlns:sodipodi="http://sodipodi.sourceforge.net/DTD/sodipodi-0.dtd"
   xmlns:inkscape="http://www.inkscape.org/namespaces/inkscape"
   width="165mm"
   height="24mm"
   viewBox="0 0 165 24"
   version="1.1"
   id="svg8"
   inkscape:version="0.92.3 (2405546, 2018-03-11)"
   sodipodi:docname="happy_web3.svg">
  <defs
     id="defs2">
    <linearGradient
       id="linearGradient4566"
       osb:paint="solid">
      <stop
         style="stop-color:#f7f1e2;stop-opacity:1;"
         offset="0"
         id="stop4564" />
    </linearGradient>
  </defs>
  <sodipodi:namedview
     id="base"
     pagecolor="#ffffff"
     bordercolor="#666666"
     borderopacity="1.0"
     inkscape:pageopacity="0.0"
     inkscape:pageshadow="2"
     inkscape:zoom="1.42"
     inkscape:cx="271.63384"
     inkscape:cy="-33.327228"
     inkscape:document-units="mm"
     inkscape:current-layer="layer1"
     showgrid="false"
     inkscape:snap-global="false"
     inkscape:window-width="1366"
     inkscape:window-height="715"
     inkscape:window-x="-8"
     inkscape:window-y="-8"
     inkscape:window-maximized="1"
     units="mm" />
  <metadata
     id="metadata5">
    <rdf:RDF>
      <cc:Work
         rdf:about="">
        <dc:format>image/svg+xml</dc:format>
        <dc:type
           rdf:resource="http://purl.org/dc/dcmitype/StillImage" />
        <dc:title></dc:title>
      </cc:Work>
    </rdf:RDF>
  </metadata>
  <g
     inkscape:label="Layer 1"
     inkscape:groupmode="layer"
     id="layer1"
     transform="translate(0,-273)">
    <g
       transform="translate(-17.653803,262.17602)"
       id="g4574">
      <path
         inkscape:connector-curvature="0"
         id="path3726"
         d="m 38.399154,11.56729 c -2.957936,0.41359 -3.7083,2.3244 -3.7083,2.3244 l -7.016625,0.1478 v 2.4753 c -5.806596,0.23967 -9.425086,2.65206 -9.721371,6.47816 -0.09187,1.18632 0.263522,2.19288 0.899686,3.03702 3.76e-4,5e-4 6.59e-4,0.001 10e-4,0.002 1.446633,2.23687 4.537241,3.59765 8.82065,3.77445 v 2.47478 0.26717 l 5.382098,-0.154 1.634527,0.0346 c 0,0 0.0935,0.21389 0.305406,0.50384 0.465206,0.82291 1.093041,1.51879 2.400371,1.68672 l 0.321427,5.2e-4 c 0.214336,0.0524 0.437674,0.0993 0.681096,0.13332 H 161.90428 c 0.003,1.7e-4 0.005,3.5e-4 0.008,5.2e-4 10e-4,-1.5e-4 0.002,-3.7e-4 0.003,-5.2e-4 h 0.49713 5.1e-4 0.13282 c 0.15112,-0.0449 0.29068,-0.0926 0.42426,-0.14211 1.12747,-0.16044 1.73977,-0.72094 2.18384,-1.41283 0.20202,-0.20133 0.4016,-0.41386 0.59945,-0.65009 l 2.34198,-0.11111 0.95756,0.009 3.58428,0.10232 v -0.0687 l 0.15193,0.002 v -0.26717 -2.12597 c 2.16161,-0.0651 4.07397,-0.60616 5.61154,-1.43971 0.001,-6.4e-4 0.003,-0.001 0.004,-0.002 2.05154,-0.92533 3.23934,-2.34164 3.71864,-3.84628 0.15961,-0.44925 0.24732,-0.93255 0.24598,-1.45314 5.4e-4,-0.0193 0.003,-0.0386 0.003,-0.0579 7.4e-4,-0.0431 -0.002,-0.0861 -0.003,-0.12919 5.1e-4,-0.0429 0.003,-0.0858 0.003,-0.12867 -0.002,0 -0.003,-10e-6 -0.005,0 -0.018,-0.44168 -0.10303,-0.88194 -0.24701,-1.31413 -0.40532,-1.34088 -1.28137,-2.46054 -2.56574,-3.31401 -1.68228,-1.24086 -4.02346,-2.0883 -6.76547,-2.17093 V 14.1073 l -0.15193,-0.007 v -0.0599 l -2.26601,-0.0475 -4.61781,-0.21963 c -0.96801,-1.15579 -1.93481,-1.90903 -3.34088,-2.20503 h -0.50023 z"
         style="fill:#f7f1e2;fill-opacity:0.89803922;stroke:#201c13;stroke-width:0.26458332px;stroke-linecap:butt;stroke-linejoin:miter;stroke-opacity:1" />
      <path
         inkscape:connector-curvature="0"
         style="fill:none;stroke:#000000;stroke-width:0.25185028px;stroke-linecap:butt;stroke-linejoin:miter;stroke-opacity:1"
         d="m 39.235965,12.46543 c -2.917852,0.37989 -3.658046,2.13499 -3.658046,2.13499 l -6.921539,0.13577 v 2.27358 c -5.727907,0.22014 -9.297359,2.43596 -9.589632,5.95028 -0.09061,1.08965 0.259953,2.0142 0.887494,2.78955 3.72e-4,4.5e-4 6.51e-4,9.1e-4 9.87e-4,0.002 1.427029,2.0546 4.475755,3.3045 8.701117,3.46689 v 2.27311 0.24542 l 5.309161,-0.14146 1.612378,0.0318 c 0,0 0.09222,0.19647 0.301266,0.46278 0.458902,0.75586 1.078228,1.39504 2.367843,1.54929 l 0.31707,4.7e-4 c 0.211432,0.0481 0.431742,0.0912 0.671866,0.12246 H 161.0674 c 0.003,1.6e-4 0.005,3.1e-4 0.008,4.8e-4 9.8e-4,-1.5e-4 0.002,-3.4e-4 0.003,-4.8e-4 h 0.49038 5.2e-4 0.131 c 0.14908,-0.0413 0.28675,-0.085 0.41851,-0.13053 1.11221,-0.14737 1.71621,-0.66219 2.15427,-1.29771 0.19926,-0.18492 0.39615,-0.38013 0.59132,-0.5971 l 2.31022,-0.10207 0.9446,0.009 3.5357,0.094 v -0.0631 l 0.14987,0.002 v -0.24539 -1.95273 c 2.13233,-0.0598 4.01877,-0.55677 5.5355,-1.3224 9.9e-4,-5.9e-4 0.003,-9e-4 0.004,-0.002 2.02373,-0.84993 3.19543,-2.15082 3.66824,-3.53286 0.15745,-0.41264 0.24397,-0.85656 0.24265,-1.33472 5.3e-4,-0.0178 0.003,-0.0355 0.003,-0.0532 7.3e-4,-0.0395 -0.002,-0.0791 -0.003,-0.11866 4.9e-4,-0.0394 0.003,-0.0789 0.003,-0.11819 -0.002,0 -0.003,-10e-6 -0.005,0 -0.0178,-0.40569 -0.10163,-0.81008 -0.24366,-1.20705 -0.39983,-1.23162 -1.26401,-2.26003 -2.53097,-3.04397 -1.65949,-1.13973 -3.96894,-1.91811 -6.6738,-1.99401 v -1.95225 l -0.14987,-0.007 v -0.0551 l -2.2353,-0.0437 -4.55522,-0.20174 c -0.95489,-1.0616 -1.90859,-1.75347 -3.29562,-2.02535 h -0.49352 z"
         id="path3745" />
      <text
         id="text3749"
         y="26.255081"
         x="31.767534"
         style="font-style:normal;font-variant:normal;font-weight:bold;font-stretch:normal;font-size:9.63330269px;line-height:1.25;font-family:'Palatino Linotype';-inkscape-font-specification:'Palatino Linotype, Bold';font-variant-ligatures:normal;font-variant-caps:normal;font-variant-numeric:normal;font-feature-settings:normal;text-align:start;letter-spacing:0px;word-spacing:0px;writing-mode:lr-tb;text-anchor:start;fill:#000000;fill-opacity:1;stroke:none;stroke-width:0.24083073"
         xml:space="preserve"><tspan
           style="font-style:normal;font-variant:normal;font-weight:bold;font-stretch:normal;font-size:9.63330269px;font-family:'Palatino Linotype';-inkscape-font-specification:'Palatino Linotype, Bold';font-variant-ligatures:normal;font-variant-caps:normal;font-variant-numeric:normal;font-feature-settings:normal;text-align:start;writing-mode:lr-tb;text-anchor:start;stroke-width:0.24083073"
           y="26.255081"
           x="31.767534"
           id="tspan3747"
           sodipodi:role="line">СЧАСТЬЕ В КАЖДЫЙ ДОМ</tspan></text>
    </g>
  </g>
</svg>
